<?xml version="1.0" encoding="UTF-8" standalone="no"?>
<!-- Created with Inkscape (http://www.inkscape.org/) -->

<svg
   xmlns:dc="http://purl.org/dc/elements/1.1/"
   xmlns:cc="http://creativecommons.org/ns#"
   xmlns:rdf="http://www.w3.org/1999/02/22-rdf-syntax-ns#"
   xmlns:svg="http://www.w3.org/2000/svg"
   xmlns="http://www.w3.org/2000/svg"
   xmlns:sodipodi="http://sodipodi.sourceforge.net/DTD/sodipodi-0.dtd"
   xmlns:inkscape="http://www.inkscape.org/namespaces/inkscape"
   width="64"
   height="64"
   id="svg5488"
   version="1.1"
   inkscape:version="0.91 r13725"
   viewBox="0 0 64 64"
   sodipodi:docname="cloud-home-two.svg">
  <defs
     id="defs5490" />
  <sodipodi:namedview
     id="base"
     pagecolor="#ffffff"
     bordercolor="#666666"
     borderopacity="1.0"
     inkscape:pageopacity="0.0"
     inkscape:pageshadow="2"
     inkscape:zoom="5.5"
     inkscape:cx="4.0909091"
     inkscape:cy="32"
     inkscape:current-layer="layer1"
     showgrid="true"
     inkscape:document-units="px"
     inkscape:grid-bbox="true"
     inkscape:window-width="1280"
     inkscape:window-height="736"
     inkscape:window-x="0"
     inkscape:window-y="21"
     inkscape:window-maximized="1" />
  <metadata
     id="metadata5493">
    <rdf:RDF>
      <cc:Work
         rdf:about="">
        <dc:format>image/svg+xml</dc:format>
        <dc:type
           rdf:resource="http://purl.org/dc/dcmitype/StillImage" />
        <dc:title></dc:title>
      </cc:Work>
    </rdf:RDF>
  </metadata>
  <g
     inkscape:groupmode="layer"
     id="layer2"
     inkscape:label="Layer 2">
    <g
       transform="matrix(2.5471641,0,0,2.9095667,1.4340293,-3.1156859)"
       id="g4828"
       style="fill:none;fill-opacity:1;stroke:#dc3522;stroke-opacity:1">
      <path
         inkscape:connector-curvature="0"
         style="fill:none;fill-opacity:1;stroke:#dc3522;stroke-opacity:1"
         id="path4186"
         d="M 19.35,10.03 C 18.67,6.59 15.64,4 12,4 9.11,4 6.6,5.64 5.35,8.03 2.34,8.36 0,10.9 0,14 a 6,6 0 0 0 6,6 l 13,0 a 5,5 0 0 0 5,-5 c 0,-2.64 -2.05,-4.78 -4.65,-4.97 z" />
    </g>
  </g>
  <g
     id="layer1"
     inkscape:label="Layer 1"
     inkscape:groupmode="layer">
    <path
       style="fill:#dc3522;fill-opacity:1;fill-rule:evenodd;stroke:none;stroke-width:2.76823735;stroke-opacity:1"
       id="path4244"
       d="m 28.145468,54.79176 0,-13.336672 8.43635,0 0,13.336672 10.545455,0 0,-17.78219 6.327272,0 -21.090903,-20.005008 -21.090913,20.005008 6.327273,0 0,17.78219 10.545466,0 z"
       inkscape:connector-curvature="0" />
  </g>
</svg>
