<?xml version="1.0" encoding="UTF-8" standalone="no"?>
<svg
   xmlns:dc="http://purl.org/dc/elements/1.1/"
   xmlns:cc="http://creativecommons.org/ns#"
   xmlns:rdf="http://www.w3.org/1999/02/22-rdf-syntax-ns#"
   xmlns:svg="http://www.w3.org/2000/svg"
   xmlns="http://www.w3.org/2000/svg"
   xmlns:sodipodi="http://sodipodi.sourceforge.net/DTD/sodipodi-0.dtd"
   xmlns:inkscape="http://www.inkscape.org/namespaces/inkscape"
   version="1.1"
   width="42"
   height="42"
   viewBox="0 0 24 24"
   id="svg4184"
   inkscape:version="0.91 r13725"
   sodipodi:docname="cloud-home.svg">
  <metadata
     id="metadata4192">
    <rdf:RDF>
      <cc:Work
         rdf:about="">
        <dc:format>image/svg+xml</dc:format>
        <dc:type
           rdf:resource="http://purl.org/dc/dcmitype/StillImage" />
        <dc:title></dc:title>
      </cc:Work>
    </rdf:RDF>
  </metadata>
  <defs
     id="defs4190" />
  <sodipodi:namedview
     pagecolor="#ffffff"
     bordercolor="#666666"
     borderopacity="1"
     objecttolerance="10"
     gridtolerance="10"
     guidetolerance="10"
     inkscape:pageopacity="0"
     inkscape:pageshadow="2"
     inkscape:window-width="1280"
     inkscape:window-height="736"
     id="namedview4188"
     showgrid="false"
     inkscape:zoom="23.875"
     inkscape:cx="11.256613"
     inkscape:cy="12"
     inkscape:window-x="0"
     inkscape:window-y="21"
     inkscape:window-maximized="1"
     inkscape:current-layer="svg4184" />
  <g
     id="g4828">
    <path
       style="fill:#dc3522;fill-opacity:1"
       id="path4186"
       d="M19.35,10.03C18.67,6.59 15.64,4 12,4C9.11,4 6.6,5.64 5.35,8.03C2.34,8.36 0,10.9 0,14A6,6 0 0,0 6,20H19A5,5 0 0,0 24,15C24,12.36 21.95,10.22 19.35,10.03Z" />
    <path
       style="fill:#2f3736;fill-opacity:1;fill-rule:evenodd"
       id="path4244"
       d="m 10.263879,20.02 0,-4.58824 3.199995,0 0,4.58824 4,0 0,-6.11764 2.4,0 -7.999998,-6.88236 -8.0000017,6.88236 2.4,0 0,6.11764 4.0000047,0 z"
       inkscape:connector-curvature="0" />
  </g>
</svg>
